<svg xmlns="http://www.w3.org/2000/svg" xmlns:xlink="http://www.w3.org/1999/xlink" viewBox="2678 80 60 60">
  <defs>
    <style>
      .cls-1 {
        fill: url(#linear-gradient);
      }

      .cls-2 {
        fill: #fff;
      }

      .cls-3 {
        fill: #06f;
      }
    </style>
    <linearGradient id="linear-gradient" x1="0.075" y1="0.172" x2="0.921" y2="0.78" gradientUnits="objectBoundingBox">
      <stop offset="0" stop-color="#005777"/>
      <stop offset="0.573" stop-color="#f07"/>
      <stop offset="1" stop-color="#fba40d"/>
    </linearGradient>
  </defs>
  <g id="Group_483" data-name="Group 483" transform="translate(2520)">
    <g id="Group_482" data-name="Group 482">
      <circle id="Ellipse_58" data-name="Ellipse 58" class="cls-1" cx="30" cy="30" r="30" transform="translate(158 80)"/>
      <circle id="Ellipse_59" data-name="Ellipse 59" class="cls-2" cx="28" cy="28" r="28" transform="translate(160 82)"/>
      <circle id="Ellipse_16" data-name="Ellipse 16" class="cls-3" cx="3.2" cy="3.2" r="3.2" transform="translate(185 108)"/>
      <path id="Path_92" data-name="Path 92" class="cls-3" d="M9,2,7.17,4H4A2.006,2.006,0,0,0,2,6V18a2.006,2.006,0,0,0,2,2H20a2.006,2.006,0,0,0,2-2V6a2.006,2.006,0,0,0-2-2H16.83L15,2Zm3,15a5,5,0,1,1,5-5A5,5,0,0,1,12,17Z" transform="translate(176 99)"/>
    </g>
  </g>
</svg>
