<svg xmlns:dc="http://purl.org/dc/elements/1.1/" xmlns:cc="http://creativecommons.org/ns#" xmlns:rdf="http://www.w3.org/1999/02/22-rdf-syntax-ns#" xmlns:svg="http://www.w3.org/2000/svg" xmlns="http://www.w3.org/2000/svg" xmlns:sodipodi="http://sodipodi.sourceforge.net/DTD/sodipodi-0.dtd" xmlns:inkscape="http://www.inkscape.org/namespaces/inkscape" viewBox="0 0 24 30" version="1.1" x="0px" y="0px"><g transform="translate(0,-1028.3622)"><path style="color:#000000;font-style:normal;font-variant:normal;font-weight:normal;font-stretch:normal;font-size:medium;line-height:normal;font-family:sans-serif;text-indent:0;text-align:start;text-decoration:none;text-decoration-line:none;text-decoration-style:solid;text-decoration-color:#000000;letter-spacing:normal;word-spacing:normal;text-transform:none;direction:ltr;block-progression:tb;writing-mode:lr-tb;baseline-shift:baseline;text-anchor:start;white-space:normal;clip-rule:nonzero;display:inline;overflow:visible;visibility:visible;opacity:1;isolation:auto;mix-blend-mode:normal;color-interpolation:sRGB;color-interpolation-filters:linearRGB;solid-color:#000000;solid-opacity:1;fill:#000000;fill-opacity:1;fill-rule:nonzero;stroke:none;stroke-width:2;stroke-linecap:butt;stroke-linejoin:miter;stroke-miterlimit:4;stroke-dasharray:none;stroke-dashoffset:0;stroke-opacity:1;color-rendering:auto;image-rendering:auto;shape-rendering:auto;text-rendering:auto;enable-background:accumulate" d="m 6,1028.3622 -1,2 3,0 c 1.7525599,-0.058 3.45358,0.8019 4.33595,2.2051 0.35296,0.5613 0.56023,1.1726 0.63476,1.7949 l -6.9707,0 -1,2 7.72266,0 c -0.0954,0.2529 -0.20641,0.5016 -0.35157,0.7402 -0.8605,1.4146 -2.4811001,2.294 -4.23437,2.2598 l -3.13672,0 0,2 c 2.43974,3.5831 4.8647899,7.3383 7.27148,11 l 2.26758,0 -7.23047,-10.998 c 3.69141,0 5.62161,-1.3323 6.77149,-3.2227 0.34147,-0.5614 0.57904,-1.1623 0.73047,-1.7793 l 2.18944,0 1,-2 -3.03319,0 c -0.0798,-0.9959 -0.38346,-1.9783 -0.9375,-2.8594 -0.26465,-0.4208 -0.58222,-0.7959 -0.92774,-1.1406 l 3.89844,0 1,-2 z"/></g><text x="0" y="39" fill="#000000" font-size="5px" font-weight="bold" font-family="'Helvetica Neue', Helvetica, Arial-Unicode, Arial, Sans-serif">Created by anbileru adaleru</text><text x="0" y="44" fill="#000000" font-size="5px" font-weight="bold" font-family="'Helvetica Neue', Helvetica, Arial-Unicode, Arial, Sans-serif">from the Noun Project</text></svg>