<svg xmlns="http://www.w3.org/2000/svg" viewBox="-892 621 15 15">
  <defs>
    <style>
      .cls-1 {
        fill: #29abe2;
      }
    </style>
  </defs>
  <path id="ic_phone_forwarded_24px" class="cls-1" d="M14.25,8.5,18,4.75,14.25,1V3.25h-3v3h3Zm1.5,3.375a8.52,8.52,0,0,1-2.677-.427.765.765,0,0,0-.765.18l-1.65,1.65A11.284,11.284,0,0,1,5.715,8.335l1.65-1.658a.72.72,0,0,0,.188-.75A8.52,8.52,0,0,1,7.125,3.25a.752.752,0,0,0-.75-.75H3.75A.752.752,0,0,0,3,3.25,12.749,12.749,0,0,0,15.75,16a.752.752,0,0,0,.75-.75V12.625A.752.752,0,0,0,15.75,11.875Z" transform="translate(-895 620)"/>
</svg>
